Coordinates
version=1
nRows=19
nColumns=32
inDegrees=no

Units are S.I. units (second, meters, Newtons, ...)
If the header above contains a line with 'inDegrees', this indicates whether rotational values are in degrees (yes) or radians (no).

endheader
time	pelvis_tilt	pelvis_list	pelvis_rotation	pelvis_tx	pelvis_ty	pelvis_tz	hip_flexion_r	hip_adduction_r	hip_rotation_r	knee_angle_r	ankle_angle_r	subtalar_angle_r	mtp_angle_r	hip_flexion_l	hip_adduction_l	hip_rotation_l	knee_angle_l	ankle_angle_l	subtalar_angle_l	mtp_angle_l	lumbar_extension	lumbar_bending	lumbar_rotation	arm_flex_r	arm_add_r	arm_rot_r	elbow_flex_r	arm_flex_l	arm_add_l	arm_rot_l	elbow_flex_l
0.905	-0.217495	0.0902548	0.0999146	0.836342	0.949066	-0.306191	0.811847	-0.169849	0.0832606	2.21943	-0.148165	-0.261625	0.0192627	0.490657	0.0759717	-0.182177	0.838828	0.512488	0.138692	-0.0104161	-0.10603	-0.174604	-0.219692	-0.670543	-0.217005	-0.169453	1.6915	-0.525307	-0.32062	-0.198515	2.11294
0.91	-0.217825	0.0766538	0.0921801	0.836002	0.949927	-0.305368	0.853202	-0.152035	0.0808861	2.19961	-0.136658	-0.269261	0.0192127	0.454361	0.0539923	-0.187105	0.829245	0.522482	0.160102	-0.0104248	-0.101395	-0.156968	-0.22733	-0.679287	-0.220353	-0.169898	1.68696	-0.514166	-0.314299	-0.19718	2.11843
0.915	-0.217019	0.0625788	0.0835179	0.836016	0.951342	-0.304475	0.890158	-0.133265	0.0759742	2.17438	-0.127885	-0.281231	0.0191627	0.414236	0.0314482	-0.194211	0.814753	0.526851	0.181337	-0.0104335	-0.0970389	-0.138551	-0.233293	-0.689364	-0.223751	-0.171104	1.68492	-0.504212	-0.307328	-0.196066	2.12472
0.92	-0.215049	0.0484838	0.0740889	0.836366	0.953311	-0.30352	0.922457	-0.114196	0.0689955	2.14409	-0.121642	-0.297139	0.0191127	0.370587	0.00925602	-0.203096	0.795562	0.5246	0.201401	-0.0104422	-0.0932374	-0.11993	-0.237725	-0.700635	-0.227033	-0.173106	1.68514	-0.495352	-0.299942	-0.195036	2.13172
0.925	-0.212051	0.0347337	0.0640812	0.837022	0.955815	-0.302512	0.95009	-0.0954109	0.0603935	2.10909	-0.117725	-0.31653	0.0190628	0.323903	-0.0117981	-0.213515	0.771929	0.514817	0.21964	-0.010451	-0.0900645	-0.101586	-0.240833	-0.712957	-0.230085	-0.175883	1.68735	-0.487533	-0.292331	-0.193978	2.13931
0.93	-0.208304	0.0215874	0.0536931	0.837947	0.95881	-0.301468	0.973279	-0.0773836	0.050546	2.06975	-0.11596	-0.338951	0.0190128	0.274845	-0.0311129	-0.225421	0.744164	0.496732	0.235743	-0.0104597	-0.0873887	-0.0838784	-0.242863	-0.726193	-0.232858	-0.17937	1.69133	-0.480752	-0.284631	-0.192815	2.14737
0.935	-0.204197	0.009211	0.0431181	0.839098	0.962235	-0.300411	0.992426	-0.060468	0.0397626	2.02645	-0.11622	-0.363994	0.0189629	0.224199	-0.0482919	-0.238986	0.712634	0.469759	0.249754	-0.0104684	-0.0849161	-0.0670528	-0.244092	-0.740202	-0.235355	-0.183475	1.69684	-0.475054	-0.276927	-0.191507	2.1558
0.94	-0.200156	-0.00228556	0.0325392	0.840435	0.966017	-0.29937	1.00804	-0.044913	0.0283101	1.97954	-0.118415	-0.391235	0.018913	0.172806	-0.0631133	-0.254559	0.677747	0.433516	0.262004	-0.0104772	-0.0822666	-0.0512714	-0.244809	-0.754843	-0.237609	-0.188089	1.70364	-0.470519	-0.269275	-0.190045	2.16452
0.945	-0.196579	-0.0128097	0.0221245	0.841917	0.970077	-0.298374	1.02064	-0.030891	0.0164448	1.92937	-0.122453	-0.420133	0.0188631	0.12149	-0.0754715	-0.272557	0.639955	0.387837	0.272971	-0.010486	-0.0790617	-0.0366579	-0.2453	-0.769966	-0.239655	-0.193096	1.71153	-0.467237	-0.261722	-0.188436	2.17348
0.95	-0.193777	-0.0222639	0.0120228	0.843509	0.974334	-0.297446	1.03072	-0.0185168	0.00442966	1.87626	-0.1282	-0.449939	0.0188133	0.0710033	-0.0853252	-0.293315	0.599759	0.332822	0.2831	-0.0104948	-0.075003	-0.023325	-0.245832	-0.785416	-0.241517	-0.198367	1.72026	-0.465281	-0.254324	-0.186691	2.18268
0.955	-0.19194	-0.0305382	0.00235942	0.845177	0.978706	-0.296595	1.03865	-0.00785452	-0.00746486	1.82048	-0.135456	-0.479694	0.0187635	0.0219936	-0.0926637	-0.316927	0.557732	0.268905	0.292655	-0.0105036	-0.0699149	-0.0113825	-0.246626	-0.801033	-0.243198	-0.203777	1.72963	-0.464683	-0.247156	-0.18481	2.19211
0.96	-0.191136	-0.0375122	-0.00676734	0.846893	0.983109	-0.295818	1.04473	0.00107952	-0.0189695	1.76229	-0.143926	-0.508287	0.0187136	-0.0250073	-0.0974901	-0.343121	0.514536	0.19696	0.301627	-0.0105124	-0.0637545	-0.000934291	-0.247841	-0.81667	-0.24468	-0.209222	1.73942	-0.46542	-0.24031	-0.182774	2.20175
0.965	-0.191325	-0.0430726	-0.0152865	0.848633	0.987462	-0.295097	1.04913	0.00831409	-0.0298316	1.70189	-0.153213	-0.53455	0.0186638	-0.0695789	-0.0998234	-0.371194	0.470941	0.118396	0.309704	-0.0105212	-0.0565978	0.00793372	-0.249561	-0.832199	-0.245921	-0.214632	1.74948	-0.467405	-0.233894	-0.180531	2.21157
0.97	-0.192389	-0.047151	-0.0231496	0.850373	0.991688	-0.294412	1.05195	0.0139263	-0.039839	1.63947	-0.162818	-0.557332	0.0186141	-0.111388	-0.0997253	-0.400015	0.427842	0.0352267	0.316304	-0.01053	-0.0486033	0.0151749	-0.2518	-0.847517	-0.246866	-0.219981	1.75968	-0.470493	-0.228021	-0.178003	2.22149
0.975	-0.194175	-0.0497308	-0.0303262	0.852087	0.995718	-0.293757	1.05327	0.0180534	-0.0488571	1.57514	-0.172168	-0.575569	0.0185643	-0.150168	-0.0973553	-0.428109	0.386267	-0.0499602	0.320677	-0.0105389	-0.0399745	0.0208244	-0.254506	-0.862557	-0.247448	-0.225283	1.76993	-0.474495	-0.222794	-0.175101	2.23143
0.98	-0.196529	-0.0508832	-0.0368009	0.85375	0.999503	-0.293142	1.05312	0.0208866	-0.0568585	1.509	-0.180661	-0.588342	0.0185146	-0.185697	-0.0929988	-0.453809	0.347367	-0.134149	0.322037	-0.0105477	-0.0309271	0.0250089	-0.257582	-0.877284	-0.247603	-0.230587	1.78019	-0.479202	-0.218299	-0.171733	2.24129
0.985	-0.199302	-0.0507632	-0.0425642	0.855331	1.00301	-0.292593	1.0515	0.0226473	-0.0639346	1.4411	-0.187703	-0.594917	0.0184649	-0.217793	-0.0870631	-0.475429	0.312373	-0.214153	0.319733	-0.0105566	-0.0216701	0.0279338	-0.26091	-0.891684	-0.247272	-0.235953	1.79045	-0.484405	-0.214597	-0.167824	2.25095
0.99	-0.202359	-0.0495744	-0.0476015	0.856804	1.00623	-0.292139	1.04841	0.0235501	-0.0702859	1.37147	-0.192759	-0.594784	0.0184152	-0.246322	-0.0800343	-0.491459	0.282515	-0.286945	0.313404	-0.0105655	-0.0124032	0.0298435	-0.264377	-0.905737	-0.246411	-0.241437	1.80071	-0.489916	-0.211724	-0.163331	2.26035
0.995	-0.205574	-0.0475152	-0.0518887	0.858149	1.00914	-0.291801	1.04377	0.0237628	-0.0761916	1.30011	-0.195409	-0.587673	0.0183655	-0.271217	-0.0724034	-0.500735	0.258932	-0.34998	0.303092	-0.0105744	-0.00332672	0.0309628	-0.267902	-0.919385	-0.244996	-0.247068	1.81092	-0.495579	-0.209687	-0.158261	2.26943
